{
    "accessors": {
        "accessor_102": {
            "bufferView": "bufferView_110",
            "byteOffset": 210888,
            "byteStride": 0,
            "componentType": 5123,
            "count": 35148,
            "type": "SCALAR"
        },
        "accessor_104": {
            "bufferView": "bufferView_111",
            "byteOffset": 3374208,
            "byteStride": 12,
            "componentType": 5126,
            "count": 35148,
            "max": [
                0.556735,
                0.0313917,
                0.0159726
            ],
            "min": [
                -0.555742,
                -0.0866138,
                -0.0332792
            ],
            "type": "VEC3"
        },
        "accessor_106": {
            "bufferView": "bufferView_111",
            "byteOffset": 3795984,
            "byteStride": 12,
            "componentType": 5126,
            "count": 35148,
            "max": [
                1,
                1,
                1
            ],
            "min": [
                -1,
                -1,
                -1
            ],
            "type": "VEC3"
        },
        "accessor_108": {
            "bufferView": "bufferView_111",
            "byteOffset": 4217760,
            "byteStride": 8,
            "componentType": 5126,
            "count": 35148,
            "max": [
                0.968662,
                1
            ],
            "min": [
                0,
                0.00465822
            ],
            "type": "VEC2"
        },
        "accessor_21": {
            "bufferView": "bufferView_110",
            "byteOffset": 0,
            "byteStride": 0,
            "componentType": 5123,
            "count": 35148,
            "type": "SCALAR"
        },
        "accessor_23": {
            "bufferView": "bufferView_111",
            "byteOffset": 0,
            "byteStride": 12,
            "componentType": 5126,
            "count": 35148,
            "max": [
                0.755605,
                0.0729337,
                0.00516409
            ],
            "min": [
                -0.235097,
                -0.0450718,
                -0.0440877
            ],
            "type": "VEC3"
        },
        "accessor_25": {
            "bufferView": "bufferView_111",
            "byteOffset": 421776,
            "byteStride": 12,
            "componentType": 5126,
            "count": 35148,
            "max": [
                1,
                1,
                1
            ],
            "min": [
                -1,
                -1,
                -1
            ],
            "type": "VEC3"
        },
        "accessor_27": {
            "bufferView": "bufferView_111",
            "byteOffset": 843552,
            "byteStride": 8,
            "componentType": 5126,
            "count": 35148,
            "max": [
                0.968662,
                1
            ],
            "min": [
                0,
                0.00465822
            ],
            "type": "VEC2"
        },
        "accessor_48": {
            "bufferView": "bufferView_110",
            "byteOffset": 70296,
            "byteStride": 0,
            "componentType": 5123,
            "count": 35148,
            "type": "SCALAR"
        },
        "accessor_50": {
            "bufferView": "bufferView_111",
            "byteOffset": 1124736,
            "byteStride": 12,
            "componentType": 5126,
            "count": 35148,
            "max": [
                0.495793,
                0.0364282,
                0.0159726
            ],
            "min": [
                -0.494909,
                -0.0815773,
                -0.0332792
            ],
            "type": "VEC3"
        },
        "accessor_52": {
            "bufferView": "bufferView_111",
            "byteOffset": 1546512,
            "byteStride": 12,
            "componentType": 5126,
            "count": 35148,
            "max": [
                1,
                1,
                1
            ],
            "min": [
                -1,
                -1,
                -1
            ],
            "type": "VEC3"
        },
        "accessor_54": {
            "bufferView": "bufferView_111",
            "byteOffset": 1968288,
            "byteStride": 8,
            "componentType": 5126,
            "count": 35148,
            "max": [
                0.968662,
                1
            ],
            "min": [
                0,
                0.00465822
            ],
            "type": "VEC2"
        },
        "accessor_75": {
            "bufferView": "bufferView_110",
            "byteOffset": 140592,
            "byteStride": 0,
            "componentType": 5123,
            "count": 35148,
            "type": "SCALAR"
        },
        "accessor_77": {
            "bufferView": "bufferView_111",
            "byteOffset": 2249472,
            "byteStride": 12,
            "componentType": 5126,
            "count": 35148,
            "max": [
                0.556735,
                0.0313917,
                0.0159726
            ],
            "min": [
                -0.555742,
                -0.0866138,
                -0.0332792
            ],
            "type": "VEC3"
        },
        "accessor_79": {
            "bufferView": "bufferView_111",
            "byteOffset": 2671248,
            "byteStride": 12,
            "componentType": 5126,
            "count": 35148,
            "max": [
                1,
                1,
                1
            ],
            "min": [
                -1,
                -1,
                -1
            ],
            "type": "VEC3"
        },
        "accessor_81": {
            "bufferView": "bufferView_111",
            "byteOffset": 3093024,
            "byteStride": 8,
            "componentType": 5126,
            "count": 35148,
            "max": [
                0.968662,
                1
            ],
            "min": [
                0,
                0.00465822
            ],
            "type": "VEC2"
        }
    },
    "animations": {},
    "asset": {
        "generator": "collada2gltf@11bf28f97f1b5380fbefacf862ce7c597873d368",
        "premultipliedAlpha": true,
        "profile": {
            "api": "WebGL",
            "version": "1.0.2"
        },
        "version": 1
    },
    "bufferViews": {
        "bufferView_110": {
            "buffer": "frame",
            "byteLength": 281184,
            "byteOffset": 0,
            "target": 34963
        },
        "bufferView_111": {
            "buffer": "frame",
            "byteLength": 4498944,
            "byteOffset": 281184,
            "target": 34962
        }
    },
    "buffers": {
        "frame": {
            "byteLength": 4780128,
            "type": "arraybuffer",
            "uri": "frame.bin"
        }
    },
    "extensionsUsed": [
        "KHR_materials_common"
    ],
    "materials": {
        "Material_002-effect": {
            "extensions": {
                "KHR_materials_common": {
                    "technique": "PHONG",
                    "values": {
                        "ambient": [
                            1,
                            1,
                            1,
                            1
                        ],
                        "diffuse": [
                            0.64,
                            0.64,
                            0.64,
                            1
                        ],
                        "emission": [
                            0,
                            0,
                            0,
                            1
                        ],
                        "shininess": 50,
                        "specular": [
                            0.5,
                            0.5,
                            0.5,
                            1
                        ]
                    }
                }
            },
            "name": "Material_002"
        }
    },
    "meshes": {
        "mona_lisa_026-mesh": {
            "name": "mona_lisa.026",
            "primitives": [
                {
                    "attributes": {
                        "NORMAL": "accessor_25",
                        "POSITION": "accessor_23",
                        "TEXCOORD_0": "accessor_27"
                    },
                    "indices": "accessor_21",
                    "material": "Material_002-effect",
                    "mode": 4
                }
            ]
        },
        "mona_lisa_170-mesh": {
            "name": "mona_lisa.170",
            "primitives": [
                {
                    "attributes": {
                        "NORMAL": "accessor_52",
                        "POSITION": "accessor_50",
                        "TEXCOORD_0": "accessor_54"
                    },
                    "indices": "accessor_48",
                    "material": "Material_002-effect",
                    "mode": 4
                }
            ]
        },
        "mona_lisa_173-mesh": {
            "name": "mona_lisa.173",
            "primitives": [
                {
                    "attributes": {
                        "NORMAL": "accessor_79",
                        "POSITION": "accessor_77",
                        "TEXCOORD_0": "accessor_81"
                    },
                    "indices": "accessor_75",
                    "material": "Material_002-effect",
                    "mode": 4
                }
            ]
        },
        "mona_lisa_174-mesh": {
            "name": "mona_lisa.174",
            "primitives": [
                {
                    "attributes": {
                        "NORMAL": "accessor_106",
                        "POSITION": "accessor_104",
                        "TEXCOORD_0": "accessor_108"
                    },
                    "indices": "accessor_102",
                    "material": "Material_002-effect",
                    "mode": 4
                }
            ]
        }
    },
    "nodes": {
        "mona_lisa_000": {
            "children": [],
            "matrix": [
                1.20842,
                0.00035186,
                -0.00107683,
                0,
                -0.000536511,
                1.89689,
                0.017744,
                0,
                0.00169549,
                -0.0177435,
                1.89689,
                0,
                -0.530483,
                0.876582,
                0.0867085,
                1
            ],
            "meshes": [
                "mona_lisa_173-mesh"
            ],
            "name": "mona_lisa_000"
        },
        "mona_lisa_001": {
            "children": [],
            "matrix": [
                -0.000536351,
                1.89689,
                0.0177439,
                0,
                -1.89697,
                -0.000552185,
                0.00169029,
                0,
                0.00169538,
                -0.0177434,
                1.89689,
                0,
                -1.13565,
                -0.00178769,
                0.0790331,
                1
            ],
            "meshes": [
                "mona_lisa_170-mesh"
            ],
            "name": "mona_lisa_001"
        },
        "mona_lisa_002": {
            "children": [],
            "matrix": [
                -1.20842,
                -0.000351466,
                0.00107676,
                0,
                0.000535894,
                -1.89689,
                -0.017744,
                0,
                0.00169537,
                -0.0177435,
                1.89689,
                0,
                -0.529984,
                -0.884576,
                0.0702342,
                1
            ],
            "meshes": [
                "mona_lisa_174-mesh"
            ],
            "name": "mona_lisa_002"
        },
        "mona_lisa_026": {
            "children": [],
            "matrix": [
                0.000537873,
                -1.89689,
                -0.0177441,
                0,
                1.89697,
                0.000553709,
                -0.0016904,
                0,
                0.00169551,
                -0.0177436,
                1.89689,
                0,
                0.0098033,
                0.491189,
                0.103125,
                1
            ],
            "meshes": [
                "mona_lisa_026-mesh"
            ],
            "name": "mona_lisa_026"
        },
        "node_4": {
            "children": [
                "mona_lisa_026",
                "mona_lisa_001",
                "mona_lisa_000",
                "mona_lisa_002"
            ],
            "matrix": [
                1,
                0,
                0,
                0,
                0,
                0,
                -1,
                0,
                0,
                1,
                0,
                0,
                0,
                0,
                0,
                1
            ],
            "name": "Y_UP_Transform"
        }
    },
    "scene": "defaultScene",
    "scenes": {
        "defaultScene": {
            "nodes": [
                "node_4"
            ]
        }
    },
    "skins": {}
}